<?xml version="1.0" encoding="UTF-8" standalone="no"?>
<svg
   version="1.0"
   width="1280.000000pt"
   height="1244.000000pt"
   viewBox="0 0 1280.000000 1244.000000"
   preserveAspectRatio="xMidYMid meet"
   id="svg20"
   sodipodi:docname="heart.svg"
   inkscape:version="1.2.2 (732a01da63, 2022-12-09)"
   xmlns:inkscape="http://www.inkscape.org/namespaces/inkscape"
   xmlns:sodipodi="http://sodipodi.sourceforge.net/DTD/sodipodi-0.dtd"
   xmlns="http://www.w3.org/2000/svg"
   xmlns:svg="http://www.w3.org/2000/svg">
  <defs
     id="defs24" />
  <sodipodi:namedview
     id="namedview22"
     pagecolor="#505050"
     bordercolor="#eeeeee"
     borderopacity="1"
     inkscape:showpageshadow="0"
     inkscape:pageopacity="0"
     inkscape:pagecheckerboard="0"
     inkscape:deskcolor="#505050"
     inkscape:document-units="pt"
     showgrid="false"
     inkscape:zoom="0.24236335"
     inkscape:cx="226.93201"
     inkscape:cy="905.665"
     inkscape:window-width="1920"
     inkscape:window-height="991"
     inkscape:window-x="-9"
     inkscape:window-y="-9"
     inkscape:window-maximized="1"
     inkscape:current-layer="g18" />
  <metadata
     id="metadata14">
Created by potrace 1.15, written by Peter Selinger 2001-2017
</metadata>
  <g
     transform="matrix(0.1,0,0,0.1,0,59)"
     fill="#000000"
     stroke="none"
     id="g18">
    <path
       d="M 3595,1356 C 2394.1198,1430.6986 1277.8942,2368.0133 1118.6127,3582.7493 899.97671,4845.5005 1356.5444,6104.6092 2231.7061,6970.193 3047.5882,7755.3998 5469.1636,9335.8375 6191.9925,10290.837 6910.5732,9281.135 8201.8175,8609.2486 9125.2441,7809.5059 10165.286,6940.176 11234.057,5870.5395 11397.381,4456.2754 11549.492,3413.9205 11080.028,2288.5226 10151.025,1756.6616 9055.1401,1068.9657 7868.6212,1400.4764 7193.763,1923.4893 6866.4536,2177.153 6578.9928,2516.1446 6240,3192 5691.4667,1896.199 4787.9922,1346.562 3595,1356 Z"
       id="path16"
       sodipodi:nodetypes="cccccccscc" />
  </g>
</svg>
